<svg width="120" height="42" viewBox="0 0 120 42" fill="none" xmlns="http://www.w3.org/2000/svg">
<path fill-rule="evenodd" clip-rule="evenodd" d="M10.5144 35.0404C8.916 34.871 7.14936 34.7865 5.71922 34.5326C4.45731 34.3635 3.53192 34.0251 3.11129 33.6867C1.84941 32.5024 1.93352 28.7803 2.01765 26.8346C2.01765 26.3268 3.19543 26.3268 3.19543 25.9039C3.36366 22.9431 3.53192 20.4051 3.86842 17.3596C4.03668 16.0907 5.0462 15.0755 6.6446 14.568C11.6081 13.0452 18.927 12.0302 21.2826 11.3534C23.0493 10.8459 23.8063 10.2536 24.6476 9.66155C28.0126 7.54652 32.1348 5.26239 34.4905 4.24738C36.6776 3.23213 38.3602 2.04779 41.3045 2.04779C49.1283 2.04779 58.1299 1.54029 65.4489 3.82442C72.4313 6.02377 78.8249 10.0845 85.3867 13.2146C93.3789 14.0605 102.296 15.6678 110.456 17.698C113.064 18.3749 114.242 19.5592 114.999 21.1665C115.841 22.8584 116.261 24.4659 116.682 25.4809C117.355 25.5654 117.355 25.7348 117.523 26.0732C117.86 26.4116 117.86 27.8496 117.86 28.3573C117.86 29.2032 117.775 30.3876 117.691 31.1489C117.523 32.7562 117.271 33.6867 116.429 34.3635C115.925 34.702 115.167 34.9556 114.495 35.0404L112.307 35.1249C109.868 34.7865 110.036 35.2095 110.204 32.5024C110.204 32.0794 110.204 31.6564 110.204 31.318C110.204 24.9734 105.156 19.8976 98.8471 19.8976C92.5376 19.8976 87.49 24.9734 87.49 31.318C87.49 32.4178 87.5741 33.4331 87.7422 34.3635C88.2472 36.8168 88.4994 36.3093 85.9758 36.4783L37.4348 36.3938C34.9952 36.0554 35.2475 36.4783 35.5 33.6022C35.584 32.8408 35.584 31.9949 35.584 31.1489C35.584 24.8041 30.5365 19.7283 24.2269 19.7283C17.9175 19.7283 12.8699 24.8041 12.8699 31.1489C12.8699 31.741 12.8699 32.3333 12.8699 32.8408C12.9541 35.4633 12.5334 35.294 10.5144 35.0404ZM47.2775 13.8066C46.6887 8.8154 46.3521 6.86969 46.1839 5.51626C46.0999 4.92398 45.9315 4.58579 45.1745 4.58579H43.4078C42.1458 4.58579 36.1729 8.56176 33.7333 11.0995C32.3032 12.5377 31.7984 14.568 34.8268 14.7373L45.5951 15.2448C47.3618 15.2448 47.4459 15.4139 47.2775 13.8066ZM73.2726 16.1753C73.4796 16.1753 77.2266 12.7068 77.2266 12.7068C77.2266 12.7068 68.9823 7.54652 64.5235 6.02377C62.925 5.51626 58.7187 4.83943 55.7744 4.75488L49.7173 4.50101C49.0442 4.50101 49.0442 4.75488 49.1283 5.34694C49.4648 7.37743 49.9696 11.0995 50.4743 13.7221C50.7268 14.991 50.979 15.2448 52.241 15.3294L73.2726 16.1753Z" fill="#DBE0EB"/>
<path d="M10.5144 35.0404C8.91601 34.871 7.14935 34.7865 5.71921 34.5326C4.4573 34.3635 3.53191 34.0251 3.11128 33.6867C1.8494 32.5024 1.93353 28.7803 2.01764 26.8346C2.01764 26.3268 3.19542 26.3268 3.19542 25.9039C3.36365 22.9431 3.53191 20.4051 3.86841 17.3596C4.03667 16.0907 5.04619 15.0755 6.64459 14.568C11.608 13.0452 18.927 12.0302 21.2826 11.3534C23.0493 10.8459 23.8063 10.2536 24.6476 9.66155C28.0126 7.54652 32.1347 5.26239 34.4905 4.24738C36.6776 3.23213 38.3602 2.04779 41.3045 2.04779C49.1283 2.04779 58.1299 1.54029 65.4489 3.82442C72.4313 6.02377 78.8249 10.0845 85.3867 13.2146C93.3789 14.0605 102.296 15.6678 110.456 17.698C113.064 18.3749 114.242 19.5592 114.999 21.1665C115.841 22.8584 116.261 24.4659 116.682 25.4809C117.355 25.5654 117.355 25.7348 117.523 26.0732C117.86 26.4116 117.86 27.8496 117.86 28.3573C117.86 29.2032 117.775 30.3876 117.691 31.1489C117.523 32.7562 117.271 33.6867 116.429 34.3635C115.925 34.702 115.167 34.9556 114.495 35.0404L112.307 35.1249M85.9758 36.4783L37.4348 36.3938M24.311 22.5202C19.5159 22.5202 15.562 26.4961 15.562 31.318C15.562 36.1402 19.5159 40.1161 24.311 40.1161C29.1063 40.1161 33.0601 36.1402 33.0601 31.318C33.0601 26.4116 29.1063 22.5202 24.311 22.5202ZM98.9312 22.5202C94.1358 22.5202 90.182 26.4961 90.182 31.318C90.182 36.1402 94.1358 40.1161 98.9312 40.1161C103.726 40.1161 107.68 36.1402 107.68 31.318C107.68 26.4116 103.726 22.5202 98.9312 22.5202Z" stroke="#2B4159" stroke-width="2.5"/>
</svg>
