<svg width="120" height="38" viewBox="0 0 120 38" fill="none" xmlns="http://www.w3.org/2000/svg">
<path fill-rule="evenodd" clip-rule="evenodd" d="M10.7675 31.0247C8.99653 30.856 6.97268 30.7716 5.45476 30.5186C4.18983 30.35 3.26224 30.0127 2.84059 29.6752C1.57567 28.4947 1.65998 24.7843 1.74431 22.8446C1.74431 22.3388 2.9249 22.3388 2.9249 21.9171C3.09357 18.9657 3.1779 17.9537 3.51521 14.9179C3.68386 13.6529 4.6958 12.6409 6.29804 12.1351C11.0204 10.617 22.4047 9.26786 27.8017 9.01482L29.4884 8.93062L31.1748 8.59315C32.2712 8.762 32.1868 8.59315 32.4398 9.77395C32.6929 10.7859 33.1987 12.0507 34.5481 12.1351C39.186 12.3881 43.9085 12.3881 48.378 12.5568C48.8838 12.5568 49.4741 12.3037 49.3899 11.7134V9.68953C49.3899 9.43648 49.5585 9.26786 49.8116 9.26786L51.3294 9.01482C51.5824 9.01482 51.751 9.18366 51.751 9.43648L52.0883 11.2073C52.3413 12.3881 52.5099 12.7254 53.6905 12.8096L73.0017 13.6529C73.2548 13.6529 75.1943 12.8096 78.4832 10.0268C76.0376 8.08729 70.5562 5.13587 65.8339 2.7745C65.2436 2.52168 64.9062 2.52168 65.3278 1.9314L65.6653 1.34112C65.9181 0.919451 66.2556 0.919451 66.6772 1.17227C73.6765 4.46116 78.5674 6.7381 85.2293 10.7015C93.2405 11.5448 102.179 13.147 110.359 15.1709C112.973 15.8454 114.238 15.5082 115.082 17.1104C115.925 18.7971 116.346 20.3993 116.768 21.4113C117.443 21.4955 117.443 21.6641 117.611 22.0015C117.78 22.3388 117.78 23.7724 117.78 24.2782C117.78 25.1216 117.696 26.3022 117.611 27.0611C117.443 28.6633 117.19 29.591 116.346 30.2655C115.841 30.603 115.081 30.856 114.407 30.856L111.877 30.9402C110.191 30.6872 109.938 30.856 110.106 28.6633C110.106 28.1574 110.191 27.6516 110.191 27.1455C110.191 20.821 105.131 15.7612 98.8063 15.7612C92.4816 15.7612 87.4219 20.821 87.4219 27.1455C87.4219 28.073 87.5063 28.9163 87.5905 29.7597C88.0121 32.7955 87.5905 32.2894 85.2293 32.2894H37.1623C35.5601 31.9522 35.054 31.9522 35.307 29.7597C35.3912 28.9163 35.3912 28.073 35.3912 27.1455C35.3912 20.821 30.3317 15.7612 24.007 15.7612C17.6824 15.7612 12.6227 20.821 12.6227 27.1455C12.6227 27.5671 12.6227 27.9888 12.6227 28.4105C12.707 30.603 12.5383 31.1933 10.7675 31.0247Z" fill="#DBE0EB"/>
<path d="M10.7674 31.0248C8.99654 30.8562 6.97266 30.7717 5.45474 30.5189C4.18981 30.3503 3.26222 30.0128 2.84058 29.6756C1.57565 28.495 1.65998 24.7845 1.74432 22.845C1.74432 22.3389 2.92491 22.3389 2.92491 21.9175C3.09355 18.9658 3.17788 17.9539 3.51519 14.918C3.68384 13.6532 4.69579 12.6413 6.29804 12.1352C11.0204 10.6174 22.4047 9.2682 27.8017 9.01516L29.4884 8.93073L31.1748 8.59349C32.2712 8.76211 32.1867 8.59349 32.4398 9.77406C32.6928 10.786 33.1987 12.051 34.5481 12.1352C39.1862 12.3882 43.9085 12.3882 48.3779 12.5569C48.8838 12.5569 49.4741 12.3038 49.3899 11.7135V9.68964C49.3899 9.43682 49.5585 9.2682 49.8116 9.2682L51.3294 9.01516C51.5824 9.01516 51.751 9.18378 51.751 9.43682L52.0883 11.2077C52.3413 12.3882 52.5099 12.7255 53.6905 12.8099L73.0017 13.6532L78.2784 9.77406M66.6772 1.17261C73.6764 4.46127 78.5673 6.73821 85.2293 10.7016C93.2405 11.5449 102.179 13.1472 110.359 15.1711C112.973 15.8458 114.238 15.5083 115.081 17.1105C115.925 18.7972 116.346 20.3994 116.768 21.4114C117.443 21.4958 117.443 21.6644 117.611 22.0017C117.78 22.3389 117.78 23.7725 117.78 24.2786C117.78 25.1219 117.696 26.3025 117.611 27.0614C117.443 28.6636 117.19 29.5912 116.346 30.2659C115.841 30.6031 115.081 30.8562 114.407 30.8562L111.877 30.9406M85.2293 32.2898H37.1623M24.0914 18.4599C19.2846 18.4599 15.3212 22.4233 15.3212 27.23C15.3212 32.0367 19.2846 36.0001 24.0914 36.0001C28.8981 36.0001 32.8615 32.0367 32.8615 27.23C32.8615 22.3389 28.8981 18.4599 24.0914 18.4599ZM98.8905 18.4599C94.0838 18.4599 90.1205 22.4233 90.1205 27.23C90.1205 32.0367 93.9994 36.0001 98.8905 36.0001C103.697 36.0001 107.661 32.0367 107.661 27.23C107.661 22.3389 103.697 18.4599 98.8905 18.4599Z" stroke="#2B4159" stroke-width="2.5" stroke-miterlimit="10"/>
</svg>
