<svg width="121" height="54" viewBox="0 0 121 54" fill="none" xmlns="http://www.w3.org/2000/svg">
<path fill-rule="evenodd" clip-rule="evenodd" d="M27.0063 32.2693C21.4405 32.2693 17.0029 36.7821 17.0029 42.2725C17.0029 47.8385 21.5157 52.276 27.0063 52.276C32.5722 52.276 37.0097 47.7632 37.0097 42.2725C37.0851 36.7821 32.5722 32.2693 27.0063 32.2693Z" stroke="#2B4159" stroke-width="2.31" stroke-miterlimit="10"/>
<path fill-rule="evenodd" clip-rule="evenodd" d="M95.9185 32.2693C90.3525 32.2693 85.915 36.7821 85.915 42.2725C85.915 47.8385 90.4278 52.276 95.9185 52.276C101.484 52.276 105.922 47.7632 105.922 42.2725C105.997 36.7821 101.484 32.2693 95.9185 32.2693Z" stroke="#2B4159" stroke-width="2.31" stroke-miterlimit="10"/>
<path d="M82.6622 42.1128C81.8929 33.1673 88.7506 27.7478 95.5078 27.9765C102.767 28.205 108.554 34.3101 107.551 42.4392C110.461 42.1128 113.304 41.8841 116.114 41.4598C119.025 41.0026 119.125 40.9375 119.225 38.0645C119.292 35.518 119.092 32.9714 118.958 30.4249C118.924 29.4129 118.356 28.956 117.319 28.5642C115.077 27.6499 112.97 26.4746 110.896 25.2667C110.16 24.8423 109.725 23.9608 109.19 23.2752C109.29 23.0793 109.39 22.8509 109.491 22.655C111.732 22.916 114.007 23.1773 116.248 23.4057C116.315 23.3078 116.382 23.2098 116.449 23.1119C115.211 22.3937 114.007 21.4143 112.669 21.0225C107.885 19.6187 103.035 18.4108 98.2175 17.1701C96.6788 16.8111 95.1064 16.4845 93.5342 16.1581C89.1186 15.244 85.1378 13.5136 81.525 10.804C76.0387 6.72313 70.0842 3.49098 63.1598 2.31565C56.6031 1.17289 49.9796 0.846492 43.3894 1.43416C33.9895 2.28308 24.623 3.42561 15.2228 4.47042C14.6876 4.53556 14.1858 4.73145 13.684 4.8622C13.6171 5.05809 13.5502 5.22117 13.5168 5.41706C14.5873 5.93958 15.6912 6.49444 16.9289 7.11468C12.8812 9.66122 9.33526 12.6975 6.29112 16.7783C8.90038 16.7783 11.2086 16.7783 13.4833 16.7783C13.5837 16.9416 13.684 17.1375 13.7509 17.3009C12.9481 17.9211 12.2456 18.7698 11.3089 19.129C9.46908 19.8146 7.52886 20.3369 5.55518 20.6635C4.61852 20.8266 4.08329 21.0225 3.84913 22.0019C3.14663 24.7444 2.41069 27.454 1.57438 30.1639C1.20642 31.4043 1.57438 32.3838 2.24345 33.3632C3.84913 35.6485 6.15732 37.0525 8.59932 38.2604C10.3388 39.1091 12.1452 39.7621 14.1858 40.6111C14.5538 35.7792 16.4606 31.992 20.6421 29.6416C23.2178 28.205 26.0279 27.7153 29.005 28.205C35.428 29.2498 38.9403 33.8855 39.3753 42.1454C53.8267 42.1128 68.2445 42.1128 82.6622 42.1128ZM17.7317 14.4279C18.2335 13.8728 18.4677 13.4157 18.8357 13.1872C22.8833 10.4448 26.9646 7.73514 31.0457 5.02528C31.3802 4.79682 31.8819 4.76425 32.3169 4.73145C36.4649 4.3071 40.613 3.84995 44.7611 3.55612C46.969 3.39304 49.1766 3.52355 51.5518 3.52355C51.2508 7.24542 50.9831 10.8365 50.7156 14.4279C39.6428 14.4279 28.8713 14.4279 17.7317 14.4279ZM82.6957 14.5259C73.4296 14.5259 64.5647 14.5259 55.6998 14.4605C55.3654 14.4605 54.7631 13.6769 54.6964 13.2198C54.4622 10.5101 54.3952 7.80029 54.2614 5.09066C54.2279 4.63351 54.2949 4.17659 54.3284 3.71944C65.2002 3.58892 74.2658 7.6372 82.6957 14.5259ZM28.9048 21.7735C28.0016 21.7735 27.0984 21.904 26.2621 21.7081C25.7937 21.6102 25.2249 21.0553 25.1247 20.6307C25.0577 20.3369 25.6934 19.5533 26.0279 19.5208C27.9011 19.4228 29.808 19.4228 31.6814 19.5533C32.0159 19.5861 32.6514 20.3697 32.5844 20.6635C32.4506 21.0879 31.8819 21.6102 31.4137 21.7081C30.6107 21.904 29.741 21.7735 28.9048 21.7735ZM60.9854 21.7735C60.1489 21.7735 59.3127 21.904 58.51 21.7409C58.0415 21.643 57.3725 21.1204 57.339 20.7615C57.3055 20.3697 57.9077 19.5861 58.2757 19.5533C60.0821 19.4228 61.9221 19.4228 63.7617 19.5533C64.1297 19.5861 64.6317 20.3369 64.6984 20.794C64.7319 21.0879 64.063 21.6755 63.6615 21.7409C62.7918 21.8714 61.8886 21.7735 60.9854 21.7735Z" fill="#DBE0EB"/>
<path d="M107.68 43.5944C107.046 43.6653 106.474 43.2091 106.403 42.5752C106.332 41.9413 106.788 41.3699 107.422 41.2987L107.68 43.5944ZM116.115 41.4671L116.294 42.608L116.287 42.6092L116.115 41.4671ZM119.226 38.0719L120.38 38.1021L120.38 38.1121L119.226 38.0719ZM118.958 30.4322L117.805 30.493C117.803 30.456 117.803 30.4191 117.804 30.3823L118.958 30.4322ZM116.449 23.1192L117.029 22.1204C117.303 22.2791 117.499 22.5434 117.573 22.851C117.646 23.159 117.59 23.4833 117.418 23.7487L116.449 23.1192ZM98.2179 17.1775L98.4805 16.0525L98.5059 16.059L98.2179 17.1775ZM93.5348 16.1654L93.2999 17.2964L93.2927 17.2948L93.5348 16.1654ZM93.5348 16.1654L93.7688 15.0342L93.7767 15.0361L93.5348 16.1654ZM81.5254 10.8113L82.2147 9.88456L82.2184 9.88733L81.5254 10.8113ZM63.1602 2.323L62.9668 3.4616L62.9617 3.46068L63.1602 2.323ZM15.2232 4.47754L15.0834 3.33108L15.0957 3.3297L15.2232 4.47754ZM13.6844 4.86931L12.5914 4.49602C12.7168 4.12896 13.0181 3.84945 13.3936 3.75173L13.6844 4.86931ZM13.5172 5.4244L13.0107 6.46252C12.5497 6.23752 12.2923 5.73556 12.3787 5.2299L13.5172 5.4244ZM16.9293 7.12202L17.4469 6.08946C17.8196 6.27633 18.0628 6.64963 18.0829 7.06612C18.1031 7.48262 17.8973 7.87762 17.5443 8.09962L16.9293 7.12202ZM6.29152 16.7857V17.9407C5.85459 17.9407 5.45505 17.6942 5.25914 17.3036C5.06321 16.913 5.10446 16.4454 5.36572 16.095L6.29152 16.7857ZM13.4837 16.7857V15.6307C13.885 15.6307 14.2575 15.839 14.4676 16.1807L13.4837 16.7857ZM13.7513 17.308L14.8201 16.87C15.0172 17.3509 14.8688 17.9042 14.4575 18.222L13.7513 17.308ZM11.3093 19.1363L11.7228 20.2149L11.7126 20.2186L11.3093 19.1363ZM5.55558 20.6706L5.35727 19.5327L5.36709 19.5311L5.55558 20.6706ZM3.84951 22.0093L4.973 22.2779L4.96838 22.296L3.84951 22.0093ZM1.57478 30.1712L0.467403 29.8427L0.471157 29.8305L1.57478 30.1712ZM2.24383 33.3706L1.2987 34.0347L1.2901 34.022L2.24383 33.3706ZM8.59972 38.2675L8.09319 39.3056L8.08762 39.3029L8.59972 38.2675ZM14.6298 39.5519C15.2188 39.7967 15.4976 40.4729 15.2526 41.0619C15.0076 41.6507 14.3316 41.9296 13.7426 41.6847L14.6298 39.5519ZM39.3783 43.3077C38.7405 43.3091 38.2221 42.7933 38.2207 42.1553C38.2193 41.5175 38.7351 40.9991 39.3729 40.9977L39.3783 43.3077ZM78.2168 40.9649C78.8545 40.9649 79.3717 41.4821 79.3717 42.1199C79.3717 42.7579 78.8545 43.2749 78.2168 43.2749V40.9649ZM107.422 41.2987C110.382 40.9665 113.16 40.7452 115.942 40.325L116.287 42.6092C113.45 43.0377 110.54 43.2733 107.68 43.5944L107.422 41.2987ZM115.936 40.326C116.683 40.2086 117.164 40.1285 117.509 40.034C117.847 39.9411 117.892 39.8744 117.877 39.8898C117.857 39.9118 117.915 39.8781 117.967 39.5616C118.022 39.232 118.046 38.7676 118.072 38.0314L120.38 38.1121C120.356 38.8125 120.33 39.4336 120.246 39.9383C120.161 40.4567 119.992 41.0065 119.571 41.4611C119.155 41.9088 118.622 42.1238 118.12 42.2615C117.624 42.3976 117.001 42.4969 116.294 42.608L115.936 40.326ZM118.071 38.0414C118.137 35.5547 117.941 33.0806 117.805 30.493L120.112 30.3717C120.243 32.8769 120.449 35.4958 120.38 38.1021L118.071 38.0414ZM115.87 24.1183C115.258 23.7633 114.516 23.2588 113.991 22.9356C113.395 22.5685 112.864 22.2904 112.345 22.1384L112.994 19.9213C113.812 20.161 114.553 20.5685 115.202 20.9686C115.924 21.4128 116.403 21.757 117.029 22.1204L115.87 24.1183ZM112.345 22.1384C107.585 20.7416 102.76 19.5399 97.9298 18.296L98.5059 16.059C103.31 17.2962 108.186 18.5106 112.994 19.9213L112.345 22.1384ZM97.9555 18.3022C96.4327 17.9469 94.8746 17.6233 93.2999 17.2964L93.7688 15.0342C95.3387 15.3602 96.9257 15.6896 98.4805 16.0525L97.9555 18.3022ZM93.2999 17.2964C88.7286 16.35 84.5893 14.5531 80.8324 11.7353L82.2184 9.88733C85.6868 12.4888 89.5087 14.1523 93.7688 15.0342L93.2999 17.2964ZM80.8361 11.7379C75.4332 7.71916 69.6476 4.59558 62.9668 3.4616L63.3533 1.18417C70.5217 2.40085 76.645 5.74157 82.2147 9.88456L80.8361 11.7379ZM62.9617 3.46068C56.4984 2.33432 49.9761 2.01369 43.4926 2.59188L43.2861 0.291122C49.9825 -0.306244 56.7086 0.0261676 63.3584 1.18509L62.9617 3.46068ZM43.4926 2.59188C34.1084 3.43942 24.7673 4.57895 15.3508 5.62561L15.0957 3.3297C24.4792 2.28673 33.8701 1.14143 43.2861 0.291122L43.4926 2.59188ZM15.3631 5.62422C15.1861 5.6457 14.9955 5.69144 14.7609 5.75889C14.5634 5.81572 14.2388 5.91852 13.9753 5.98712L13.3936 3.75173C13.6319 3.68959 13.809 3.62907 14.1217 3.53922C14.3972 3.45975 14.7252 3.37474 15.0834 3.33108L15.3631 5.62422ZM14.7774 5.24261C14.6839 5.51658 14.6687 5.54268 14.6557 5.61891L12.3787 5.2299C12.4326 4.91436 12.5511 4.61406 12.5914 4.49602L14.7774 5.24261ZM14.0237 4.38652C14.9928 4.85938 15.9881 5.35834 17.0765 5.90396L16.0413 7.96887C14.9505 7.42209 13.9666 6.92891 13.0107 6.46252L14.0237 4.38652ZM17.0765 5.90396L17.4469 6.08946L16.4117 8.15459L16.0413 7.96887L17.0765 5.90396ZM17.5443 8.09962C13.5957 10.5838 10.1625 13.5279 7.21733 17.4764L5.36572 16.095C8.50878 11.8815 12.1675 8.75335 16.3143 6.14443L17.5443 8.09962ZM6.29152 15.6307H13.4837V17.9407H6.29152V15.6307ZM14.4676 16.1807C14.5979 16.3927 14.7275 16.6443 14.8201 16.87L12.6826 17.7459C12.6414 17.6455 12.5702 17.5052 12.4998 17.3907L14.4676 16.1807ZM14.4575 18.222C14.0716 18.5203 13.8166 18.7848 13.3292 19.1996C12.9066 19.5593 12.377 19.9642 11.7228 20.2149L10.8959 18.0578C11.1784 17.9495 11.4683 17.7501 11.8318 17.4406C12.1306 17.1862 12.6282 16.7161 13.0452 16.3941L14.4575 18.222ZM11.7126 20.2186C9.8045 20.9296 7.7924 21.4715 5.74408 21.8102L5.36709 19.5311C7.26611 19.2172 9.13444 18.7141 10.9061 18.0541L11.7126 20.2186ZM5.7539 21.8085C5.53297 21.8471 5.38 21.8804 5.2639 21.9157C5.15168 21.9499 5.10622 21.9769 5.0916 21.9869C5.08473 21.9917 5.07938 21.9947 5.06651 22.0157C5.04881 22.0444 5.01102 22.1188 4.973 22.2779L2.72618 21.7406C2.88929 21.0585 3.20594 20.4784 3.78665 20.0809C4.29605 19.7321 4.89511 19.6131 5.35727 19.5327L5.7539 21.8085ZM4.96838 22.296C4.26332 25.0483 3.52225 27.7776 2.67843 30.5117L0.471157 29.8305C1.29994 27.1451 2.03073 24.4549 2.73064 21.7226L4.96838 22.296ZM2.6821 30.4995C2.45152 31.277 2.63242 31.8917 3.19756 32.7191L1.2901 34.022C0.517174 32.8905 -0.0379443 31.5463 0.467403 29.8427L2.6821 30.4995ZM3.18887 32.7064C4.622 34.7462 6.71107 36.0448 9.11183 37.2324L8.08762 39.3029C5.60437 38.0746 3.077 36.5657 1.2987 34.0347L3.18887 32.7064ZM9.10624 37.2296C10.806 38.0589 12.5215 38.6748 14.6298 39.5519L13.7426 41.6847C11.7698 40.864 9.87246 40.174 8.09319 39.3056L9.10624 37.2296ZM39.3729 40.9977C53.8238 40.9649 63.7961 40.9649 78.211 40.9649V43.2749C63.7961 43.2749 53.8261 43.2749 39.3783 43.3077L39.3729 40.9977ZM78.211 40.9649H78.2168V43.2749H78.211V40.9649ZM117.804 30.3823C117.864 29.0081 117.582 28.3532 117.331 28.013C117.066 27.6547 116.714 27.4662 116.198 27.2262C115.975 27.1227 115.631 26.9693 115.343 26.7695C115.025 26.5487 114.662 26.1968 114.507 25.6394C114.359 25.1093 114.453 24.581 114.624 24.1068C114.797 23.6297 115.087 23.0964 115.481 22.4898L117.418 23.7487C117.066 24.2906 116.883 24.6538 116.797 24.8903C116.711 25.1301 116.763 25.1329 116.732 25.0204C116.693 24.8808 116.605 24.8333 116.661 24.8723C116.747 24.9324 116.877 24.9945 117.172 25.1317C117.69 25.3726 118.541 25.7644 119.188 26.6397C119.848 27.5327 120.186 28.764 120.112 30.4821L117.804 30.3823Z" fill="#2B4159"/>
</svg>
