<svg width="118" height="42" viewBox="0 0 118 42" fill="none" xmlns="http://www.w3.org/2000/svg">
<path fill-rule="evenodd" clip-rule="evenodd" d="M5.52495 36.3825C4.18943 36.1154 3.21003 35.8482 2.76485 35.4922C1.42932 34.2457 1.78548 30.328 1.87451 28.2801C1.87451 27.7461 3.12098 27.7461 3.12098 27.3009C3.29906 24.1845 4.63461 18.4864 4.99074 15.2811C5.07979 14.1235 5.614 12.61 7.66182 11.3636C10.0658 9.84981 16.9215 5.84335 19.5035 4.77474C21.1951 4.06257 20.8392 3.88447 22.6197 3.61743C31.7904 2.28179 51.8234 0.768277 60.816 3.61743C68.2059 5.93228 74.6167 9.40467 81.2944 13.5003C93.1359 15.5481 102.752 17.2397 108.45 18.8424C111.21 19.5548 112.368 20.8902 113.258 22.5821C114.148 24.3626 114.594 25.431 115.039 26.4996C116.018 26.5885 116.285 27.568 116.285 28.8145C116.285 30.7733 116.463 32.1979 115.929 34.2457C115.484 35.6703 114.238 36.5606 112.635 36.5606L109.786 36.6495C108.361 36.3825 108.005 36.4714 108.094 34.6017C108.094 33.9785 108.183 33.2663 108.183 32.643C108.183 25.9653 102.841 20.6232 96.1632 20.6232C89.4857 20.6232 84.1433 25.9653 84.1433 32.643C84.1433 33.5333 84.1433 34.5128 84.2325 35.3141C84.4106 38.2522 85.39 37.9851 82.5409 38.0741L34.1944 37.9851C32.1466 37.7181 31.6123 37.9851 31.8796 35.136C31.9685 34.2457 31.9685 33.4444 31.9685 32.4649C31.9685 25.7872 26.6264 20.4451 19.9487 20.4451C13.2711 20.4451 7.92893 25.7872 7.92893 32.4649C7.92893 33.0882 7.92893 33.6225 7.92893 34.2457C7.92893 36.3825 8.46314 36.9168 5.52495 36.3825ZM44.0773 14.3906C43.3651 8.3363 43.276 6.55552 42.6527 5.13094C42.5638 4.8639 42.0295 4.41877 41.5844 4.41877C37.2217 4.59687 32.3247 4.59687 28.1399 5.57608C26.6264 6.02145 23.5992 9.49384 22.7978 10.5622C22.5308 11.0073 20.3049 13.5003 20.6611 14.0346C20.9281 14.3906 21.1951 14.6578 21.8184 14.6578C28.4072 14.8359 35.7079 15.5481 42.2968 15.6373C44.1665 15.6373 44.2554 16.0824 44.0773 14.3906ZM69.0073 16.5276C68.9184 16.2605 73.1921 12.4319 73.8153 12.7881C70.2538 10.206 64.4665 7.35686 59.7477 5.75418C55.9191 4.41877 50.6661 4.41877 46.5705 4.3296C45.8581 4.3296 45.8581 4.59687 45.947 5.22011C46.2143 7.08982 46.9265 11.2744 47.3716 14.0346C47.5497 15.37 47.9059 15.7262 49.2415 15.7262C54.6726 15.7262 69.0965 16.7946 69.0073 16.5276Z" fill="#DBE0EB"/>
<path d="M5.52497 36.3825C4.18944 36.1154 3.21005 35.8482 2.76487 35.4922C1.42932 34.2457 1.78547 30.328 1.87452 28.2801C1.87452 27.7461 3.121 27.7461 3.121 27.3009C3.29908 24.1845 4.6346 18.4864 4.99076 15.2811C5.07979 14.1235 5.614 12.61 7.66181 11.3636C10.0658 9.84981 16.9215 5.84335 19.5035 4.77474C21.1951 4.06257 20.8392 3.88447 22.6197 3.61743C31.7904 2.28179 51.8234 0.768277 60.816 3.61743C68.2062 5.93228 74.6166 9.40467 81.2944 13.5003C93.1359 15.5481 102.752 17.2397 108.45 18.8424C111.21 19.5548 112.368 20.8902 113.258 22.5821C114.148 24.3626 114.594 25.431 115.039 26.4996C116.018 26.5885 116.285 27.568 116.285 28.8145C116.285 30.7733 116.463 32.1979 115.929 34.2457C115.484 35.6703 114.238 36.5606 112.635 36.5606L109.786 36.6495M82.5409 38.0741L34.1944 37.9851" stroke="#2B4159" stroke-width="2.5" stroke-miterlimit="10"/>
<path d="M19.1995 24.498C14.7623 24.498 11.0947 28.1656 11.0947 32.6029C11.0947 37.04 14.7623 40.7075 19.1995 40.7075C23.6366 40.7075 27.3042 37.04 27.3042 32.6029C27.3042 28.1585 23.7184 24.498 19.1995 24.498ZM95.5031 24.498C91.0658 24.498 87.3982 28.1656 87.3982 32.6029C87.3982 37.04 91.0658 40.7075 95.5031 40.7075C99.9401 40.7075 103.608 37.04 103.608 32.6029C103.608 28.1656 99.9401 24.498 95.5031 24.498Z" stroke="#2B4159" stroke-width="2.5" stroke-miterlimit="10"/>
</svg>
