<svg width="118" height="48" viewBox="0 0 118 48" fill="none" xmlns="http://www.w3.org/2000/svg">
<path fill-rule="evenodd" clip-rule="evenodd" d="M11.6136 41.8507C9.63038 41.6856 7.15138 41.5204 5.33344 41.1071C4.09394 40.8593 3.18495 40.5287 2.77179 40.1155C1.53229 38.7934 1.61494 34.7442 1.69757 32.5959C1.69757 32.1 2.85444 32.1 2.85444 31.5215C3.0197 28.2989 3.2676 24.9935 4.09394 21.7708C4.67236 19.292 5.91186 17.6391 6.90347 15.656C7.72981 13.9207 9.71304 8.38413 12.6052 5.24415C13.0184 4.74842 13.101 4.0873 13.0184 3.59158C12.9357 2.18663 13.1836 2.35203 14.5058 2.26933C15.9932 2.10416 18.4722 2.26933 21.8602 2.26933L61.2764 2.51719C63.0944 2.51719 64.9123 2.68259 66.4822 2.84775C75.3242 3.50888 85.9012 10.9459 93.4207 15.4906C97.6351 16.978 104.081 19.3744 109.7 21.4403C111.931 22.2668 112.675 23.3409 113.335 24.8283C113.749 25.7373 114.079 26.9769 114.492 28.5467C114.74 29.5384 115.071 30.5301 115.319 31.1085C115.98 31.191 115.98 31.0258 116.145 31.4391C116.393 31.8521 116.228 32.4305 116.31 33.1744C116.393 34.7442 116.393 36.8928 116.062 38.3802C115.732 39.7849 115.401 40.446 114.823 40.942C114.327 41.355 113.831 41.6029 113.17 41.6856L110.443 41.7683C108.625 41.6029 108.543 41.9334 108.873 39.7024C108.956 39.2065 108.956 38.7107 108.956 38.1323C108.956 31.9348 103.998 26.9769 97.8005 26.9769C91.603 26.9769 86.6448 31.9348 86.6448 38.1323C86.6448 39.2065 86.8102 40.2808 87.0581 41.2723C87.7192 43.4208 87.3886 43.0903 85.6534 43.2557L36.5689 43.173C34.7509 43.0078 34.0073 43.4208 34.6684 41.0244C34.9163 40.1154 35.0815 39.124 35.0815 38.1323C35.0815 31.9348 30.1235 26.9769 23.926 26.9769C17.7285 26.9769 12.7705 31.9348 12.7705 38.1323C12.7705 38.7934 12.8531 39.4546 12.9357 40.1155C13.1836 41.2723 12.8531 41.9334 11.6136 41.8507ZM57.2274 16.6475C56.5663 10.3675 56.4009 7.55785 55.8225 5.98774C55.74 5.73988 55.2441 5.49201 54.9135 5.49201L39.7091 5.40931C38.7174 5.40931 38.139 5.40931 38.139 6.73156L37.8911 15.656C37.8911 16.8129 37.7257 17.3086 38.9653 17.3913C45.0803 17.6391 49.5425 17.8045 55.6573 17.887C57.3099 17.887 57.3926 18.3003 57.2274 16.6475ZM82.0174 18.7133C82.0174 18.7133 85.488 15.3255 85.9012 14.9122C80.6127 10.5327 71.6056 5.57471 64.9123 5.57471H59.5411C58.88 5.57471 58.88 5.90527 58.9627 6.48369C59.4584 8.54953 59.8717 13.4248 60.2022 16.3171C60.3674 17.7218 60.698 18.0524 61.9375 18.0524C67.0606 18.0524 82.1001 19.0439 82.0174 18.7133ZM34.999 15.9866C35.1642 13.0942 35.2468 10.2021 35.412 7.22729C35.412 6.73156 35.3295 6.401 35.2468 6.07043C35.1642 5.82257 34.7509 5.57471 34.4206 5.57471C31.0325 5.49201 32.3547 5.57471 28.9667 5.49201C28.0577 5.49201 22.1907 6.64886 20.2901 8.30166C17.7285 10.5327 15.1668 13.3423 14.5884 14.4992C14.0926 15.4906 14.3405 16.1517 15.58 16.2344C21.695 16.4823 27.2314 17.0607 33.3462 17.1434C34.999 17.2261 34.9163 17.7218 34.999 15.9866Z" fill="#DBE0EB"/>
<path d="M11.6136 41.8507C9.6304 41.6856 7.15138 41.5204 5.33343 41.1071C4.09393 40.8593 3.18497 40.5287 2.77181 40.1155C1.53231 38.7934 1.61493 34.7442 1.69756 32.5959C1.69756 32.1 2.85443 32.1 2.85443 31.5215C3.01969 28.2989 3.2676 24.9935 4.09393 21.7708C4.67236 19.292 5.91186 17.6391 6.90347 15.656C7.7298 13.9207 9.71303 8.38413 12.6052 5.24415C13.0184 4.74842 13.101 4.0873 13.0184 3.59158C12.9357 2.18663 13.1836 2.35203 14.5058 2.26933C15.9932 2.10416 18.4722 2.26933 21.8602 2.26933L61.2764 2.51719C63.0944 2.51719 64.9123 2.68259 66.4822 2.84775C75.3242 3.50888 85.9012 10.9459 93.4207 15.4906C97.6351 16.978 104.081 19.3744 109.7 21.4403C111.931 22.2668 112.675 23.3409 113.335 24.8283C113.749 25.7373 114.079 26.9769 114.492 28.5467C114.74 29.5384 115.071 30.5301 115.319 31.1085C115.98 31.191 115.98 31.0258 116.145 31.4391C116.393 31.8521 116.228 32.4305 116.31 33.1744C116.393 34.7442 116.393 36.8928 116.062 38.3802C115.732 39.7849 115.401 40.446 114.823 40.942C114.327 41.355 113.831 41.6029 113.17 41.6856L110.443 41.7683M85.6533 43.2557L36.5689 43.173M23.926 29.5384C19.2159 29.5384 15.3321 33.4222 15.3321 38.1323C15.3321 42.8424 19.2159 46.7262 23.926 46.7262C28.6361 46.7262 32.5199 42.8424 32.5199 38.1323C32.5199 33.3395 28.6361 29.5384 23.926 29.5384ZM97.8005 29.5384C93.0904 29.5384 89.2066 33.4222 89.2066 38.1323C89.2066 42.8424 93.0904 46.7262 97.8005 46.7262C102.511 46.7262 106.394 42.8424 106.394 38.1323C106.394 33.3395 102.593 29.5384 97.8005 29.5384Z" stroke="#2B4159" stroke-width="2.5" stroke-miterlimit="10"/>
</svg>
