<svg width="95" height="54" viewBox="0 0 95 54" fill="none" xmlns="http://www.w3.org/2000/svg">
<path d="M80.5547 4.1885L80.595 4.28061L80.657 4.35982L90.2687 16.6494C91.1828 18.3942 91.8193 19.3606 92.2594 19.9981C92.3148 20.0783 92.3653 20.1511 92.4113 20.2176C92.761 20.7221 92.8573 20.8609 92.918 21.085C92.9948 21.3685 93.0058 21.7868 92.9759 22.9874C92.9721 23.1373 92.9679 23.2975 92.9634 23.4691C92.9332 24.6165 92.8896 26.272 92.8896 28.7351V38.0837C92.8896 40.6474 90.8025 42.7343 88.2388 42.7343H80.4857L75.8594 42.5114C74.8627 38.5601 71.2822 35.6864 67.0788 35.6864C63.1815 35.6864 59.8308 38.203 58.5637 41.6779L57.0038 41.6027L56.9846 41.6017H56.9654H33.3708C32.0901 38.1271 28.746 35.6864 24.8721 35.6864C21.0028 35.6864 17.6726 38.1664 16.3849 41.6017H3.94161C3.27486 41.6017 2.73145 41.058 2.73145 40.3916V30.5048C2.73145 29.8384 3.27472 29.2949 3.94161 29.2949H53.5864H54.3843V28.497V3.14398C54.3843 2.61082 54.5923 2.30496 54.8405 2.11249C55.1183 1.89703 55.4869 1.79774 55.7771 1.79774H68.1067C69.5374 1.79774 72.452 1.86079 75.1604 2.23739C76.5177 2.42611 77.7882 2.68902 78.7837 3.04683C79.807 3.41466 80.3525 3.81775 80.5454 4.16731L80.5547 4.1885ZM57.7319 19.2127V20.0153L58.5346 20.0105L85.4344 19.8488L86.8921 19.8401L86.0991 18.617L85.4296 19.051C86.0991 18.617 86.0991 18.6169 86.099 18.6169L86.0989 18.6166L86.0981 18.6155L86.0953 18.611L86.0839 18.5935L86.0393 18.5247L85.8677 18.26L85.2373 17.2874C84.7054 16.4666 83.9714 15.3338 83.163 14.0856C81.5534 11.6004 79.6494 8.65872 78.4589 6.81239C78.2276 6.39597 77.8489 6.10168 77.4637 5.88884C77.0602 5.6659 76.5801 5.49409 76.072 5.35763C75.0551 5.08455 73.8089 4.92283 72.5648 4.82504C70.4348 4.65761 68.196 4.67027 66.9198 4.67749C66.7028 4.67872 66.5136 4.67979 66.3575 4.67979H58.5298H57.7319V5.47765V19.2127Z" fill="#DBE0EB" stroke="#A3AED0" stroke-width="1.59572"/>
<path d="M11.4524 42.3996H3.94155C2.83443 42.3996 1.93359 41.4988 1.93359 40.3916V30.5048C1.93359 29.3977 2.83443 28.4969 3.94155 28.4969H53.5862V3.14398C53.5862 1.57077 54.8963 0.999878 55.7768 0.999878H75.4468C78.3369 0.999878 81.7694 3.08801 83.0987 5.65437L83.1207 5.70337L89.2038 14.4437C92.1227 18.6377 93.6873 23.6253 93.6873 28.7351V38.0837C93.6873 41.0881 91.2428 43.5322 88.2382 43.5322H78.6318M36.4652 42.3996H55.1305" stroke="#2B4159" stroke-width="2"/>
<path d="M16.6143 44.7421C16.6143 40.2161 20.3463 36.4843 24.8721 36.4843C29.398 36.4843 33.13 40.1368 33.13 44.7421C33.13 49.268 29.398 53 24.8721 53C20.3463 53 16.6143 49.268 16.6143 44.7421Z" stroke="#2B4159" stroke-width="2" stroke-miterlimit="10"/>
<path d="M58.8213 44.7421C58.8213 40.2161 62.5533 36.4843 67.0791 36.4843C71.605 36.4843 75.337 40.1368 75.337 44.7421C75.337 49.268 71.605 53 67.0791 53C62.5533 53 58.8213 49.268 58.8213 44.7421Z" stroke="#2B4159" stroke-width="2" stroke-miterlimit="10"/>
</svg>
