<svg width="128" height="41" viewBox="0 0 128 41" fill="none" xmlns="http://www.w3.org/2000/svg">
<path d="M96.1729 31.0476C96.1729 26.5216 99.8178 22.7898 104.238 22.7898C108.658 22.7898 112.303 26.4421 112.303 31.0476C112.303 35.5733 108.658 39.3051 104.238 39.3051C99.8178 39.3051 96.1729 35.5733 96.1729 31.0476Z" stroke="#2B4159" stroke-width="2.5" stroke-miterlimit="10"/>
<path d="M19.9434 31.0476C19.9434 26.5216 23.5883 22.7898 28.0087 22.7898C32.4289 22.7898 36.0739 26.4421 36.0739 31.0476C36.0739 35.5733 32.4289 39.3051 28.0087 39.3051C23.5883 39.3051 19.9434 35.5733 19.9434 31.0476Z" stroke="#2B4159" stroke-width="2.5" stroke-miterlimit="10"/>
<path d="M1.49916 23.6313C1.5318 22.3975 1.91461 21.1949 2.60623 20.1683L3.1108 19.4153L5.31613 13.5976C5.73159 12.4991 6.74577 11.7348 7.91433 11.6368C10.0833 11.4536 13.7672 11.1751 17.2842 11.0457C29.5772 4.51763 52.3085 -2.04577 71.5853 5.10761C75.5404 6.57469 86.8407 12.3171 86.8407 12.3171C86.8407 12.3171 105.191 11.8528 118.279 16.5209C123.435 18.3596 126.687 23.4781 126.144 28.9269C126.035 30.0175 125.874 30.9879 125.716 31.771C125.466 33.0099 124.443 33.9438 123.187 34.0831L115.044 34.9754C115.557 33.9061 115.917 32.7502 116.071 31.5176C116.136 31.0143 116.169 30.5486 116.169 30.0967C116.169 23.8623 111.097 18.7902 104.862 18.7902C98.6268 18.7902 93.5534 23.8634 93.5534 30.0967C93.5534 30.4231 93.5746 30.7419 93.6009 31.0607C93.7204 32.4601 94.1018 33.787 94.6906 34.9955H38.1515L37.6932 34.9692C38.1954 33.9124 38.5506 32.7689 38.7024 31.5553C38.7678 31.0494 38.799 30.5848 38.799 30.1406C38.799 23.9274 33.7458 18.8717 27.5315 18.8717C21.317 18.8717 16.2625 23.9251 16.2625 30.1406C16.2625 30.4656 16.2838 30.7821 16.3102 31.0995C16.388 32.021 16.5901 32.9045 16.8787 33.7479L15.6073 33.6715L6.84743 32.513C5.32366 32.3109 3.97938 31.4134 3.20997 30.0829L2.33762 28.5779C1.7364 27.5361 1.43263 26.3476 1.46527 25.145L1.49916 23.6313ZM32.5294 12.4188H75.4074C75.4074 12.4188 75.1526 11.4035 76.2734 10.1771C76.2734 10.1771 65.312 3.10669 48.3836 4.87268C43.7255 5.35986 38.0334 5.68996 30.2841 9.71768L32.5294 12.4188Z" fill="#DBE0EB"/>
<path d="M115.044 34.9754L123.187 34.0831C124.443 33.9438 125.466 33.0099 125.716 31.771C125.874 30.9879 126.035 30.0175 126.144 28.9269C126.687 23.4781 123.435 18.3596 118.279 16.5209C105.191 11.8528 86.8407 12.3171 86.8407 12.3171C86.8407 12.3171 75.5404 6.57469 71.5853 5.10761C52.3085 -2.04577 29.5772 4.51763 17.2842 11.0457C13.7672 11.1751 10.0833 11.4536 7.91433 11.6368C6.74577 11.7348 5.73159 12.4991 5.31613 13.5976L3.1108 19.4153L2.60623 20.1683C1.91461 21.1949 1.5318 22.3975 1.49916 23.6313L1.46527 25.145C1.43263 26.3476 1.73639 27.5361 2.33762 28.5779L3.20994 30.0829C3.97938 31.4134 5.32366 32.3109 6.84743 32.513L15.6073 33.6715L16.8787 33.7479M94.6906 34.9955H38.1515" stroke="#2B4159" stroke-width="2.5"/>
</svg>
