<svg width="120" height="49" viewBox="0 0 120 49" fill="none" xmlns="http://www.w3.org/2000/svg">
<path fill-rule="evenodd" clip-rule="evenodd" d="M4.93803 38.7399C4.86404 38.7399 4.79005 38.666 4.71604 38.666C3.16208 38.3701 2.49611 38.5921 2.27412 36.5942C1.97814 34.2262 2.05213 30.5262 1.97811 29.1204C1.90412 28.0843 2.05213 27.1964 3.08809 26.9744C3.68007 26.8263 4.34607 26.7524 4.34607 26.4563C4.56806 22.9044 5.08601 20.0924 5.89998 17.5027C7.23195 13.1368 8.56392 9.51079 11.0798 4.55307C12.4118 1.88895 11.9679 2.03702 15.3718 2.03702C27.8774 2.03702 41.049 1.88894 53.7027 2.18509C62.2125 2.33316 70.4262 2.40708 73.9781 3.51704C78.566 6.03286 82.8579 12.2488 86.0397 14.8386C94.2536 15.7268 103.355 16.3186 111.717 18.3907C114.677 19.1306 115.639 19.2045 116.157 22.3126C116.453 24.0885 116.527 26.0864 116.749 27.1225C116.971 27.1225 117.119 27.1225 117.267 27.1225C117.711 27.1225 117.785 27.6404 117.785 28.1583C117.859 30.0083 118.007 34.0042 117.711 36.298C117.415 38.222 116.379 38.8141 114.677 38.8141H111.643C109.275 38.8141 109.719 38.5921 109.497 36.298C109.053 29.9342 103.725 24.8284 97.2134 24.8284C90.7015 24.8284 85.3737 29.8603 84.9298 36.2241C84.7817 38.666 85.2257 38.7399 82.7099 38.7399H34.0931C31.2073 38.7399 31.7993 38.5921 31.4292 35.7801C30.7633 29.6383 25.5094 24.8284 19.1456 24.8284C12.7078 24.8284 7.37998 29.7864 6.86201 36.1502C6.714 37.556 7.15796 38.8141 5.67802 38.8141H4.93803V38.7399ZM76.2721 16.4667C76.8639 15.9488 78.492 14.1726 79.824 13.0626C79.9718 12.9148 80.1199 12.7667 79.9718 12.6187C77.5299 9.43687 75.4581 7.66094 73.164 5.81087C71.5362 5.29296 62.2125 4.99705 59.2525 4.9229C57.9945 4.9229 56.6625 4.84898 55.4045 4.84898C54.7385 4.84898 54.5907 5.14489 54.8127 5.73695C55.1825 7.66094 55.7746 11.5829 56.2186 14.2468C56.4405 15.5787 56.7365 16.3186 58.0686 16.2447C63.2483 16.4667 76.346 16.9106 76.2721 16.4667ZM32.4653 14.3946C32.6873 12.1008 33.8712 8.62283 34.6113 6.329C34.9072 5.44104 35.2031 4.62699 36.1652 4.62699C41.1229 4.77506 45.6369 4.70091 50.5207 4.84898C50.8908 4.84898 51.4087 5.07097 51.4828 5.29296C52.0007 6.69883 52.1488 8.69698 52.8887 14.5427C53.1107 16.1708 52.9626 16.3927 51.1867 16.3186C47.2648 16.3186 39.791 16.3186 34.4632 16.1708C32.8353 16.1708 32.2433 16.3186 32.4653 14.3946ZM25.6575 14.5427C26.4715 12.6928 27.8035 9.58494 29.0613 6.77298C29.8014 5.14489 29.8014 4.62699 27.8774 4.55307C24.1035 4.47892 16.9997 4.55307 14.2618 4.62699C14.0398 4.62699 13.2998 4.99705 13.1518 5.21904C12.4119 6.62491 11.6718 8.10493 9.5259 14.0248C8.93394 15.6526 9.2299 16.2447 10.3399 16.1708C12.9298 16.0966 19.3676 16.1708 23.2156 16.1708C24.4734 16.2447 25.1393 15.5787 25.6575 14.5427Z" fill="#DBE0EB"/>
<path d="M111.643 38.8141H114.677C116.379 38.8141 117.415 38.222 117.711 36.298C118.007 34.0042 117.859 30.0083 117.785 28.1583C117.785 27.6404 117.711 27.1225 117.267 27.1225C117.119 27.1225 116.971 27.1225 116.749 27.1225C116.527 26.0864 116.453 24.0885 116.157 22.3126C115.639 19.2045 114.677 19.1306 111.717 18.3907C103.355 16.3186 94.2536 15.7268 86.0397 14.8386C82.8579 12.2488 78.566 6.03286 73.9781 3.51704C70.4262 2.40708 62.2125 2.33316 53.7027 2.18509C41.049 1.88894 27.8774 2.03702 15.3717 2.03702C11.9678 2.03702 12.4118 1.88895 11.0798 4.55307C8.56392 9.51079 7.23195 13.1368 5.89999 17.5027C5.08601 20.0924 4.56806 22.9044 4.34607 26.4563C4.34607 26.7524 3.68008 26.8263 3.08809 26.9744C2.0521 27.1964 1.90412 28.0843 1.97811 29.1204C2.0521 30.5262 1.97814 34.2262 2.27412 36.5942C2.49611 38.5921 3.16208 38.3701 4.71604 38.666C4.79005 38.666 4.86404 38.7399 4.93803 38.7399V38.8141H5.67799M82.7099 38.7399H34.0931M97.2134 27.2703C91.7376 27.2703 87.3717 31.7101 87.3717 37.1121C87.3717 42.5879 91.8115 46.9538 97.2134 46.9538C102.689 46.9538 107.055 42.514 107.055 37.1121C107.055 31.7101 102.689 27.2703 97.2134 27.2703ZM19.1456 27.2703C13.6698 27.2703 9.30391 31.7101 9.30391 37.1121C9.30391 42.5879 13.7438 46.9538 19.1456 46.9538C24.6215 46.9538 28.9873 42.514 28.9873 37.1121C29.0613 31.7101 24.6215 27.2703 19.1456 27.2703Z" stroke="#2B4159" stroke-width="2.31" stroke-miterlimit="10"/>
</svg>
