<svg width="118" height="55" viewBox="0 0 118 55" fill="none" xmlns="http://www.w3.org/2000/svg">
<path d="M88.1829 36.5C92.9229 36.5 96.8316 40.4086 96.8316 45.1487C96.8316 49.8888 92.9229 53.7974 88.1829 53.7974C83.4428 53.7974 79.5342 49.8888 79.5342 45.1487C79.5342 40.4086 83.4428 36.5 88.1829 36.5Z" stroke="#2B4159" stroke-width="2.3" stroke-miterlimit="10"/>
<path d="M26.0823 36.5C30.8224 36.5 34.731 40.4086 34.731 45.1487C34.731 49.8888 30.8224 53.7974 26.0823 53.7974C21.3421 53.7974 17.4336 49.8888 17.4336 45.1487C17.4336 40.4086 21.3421 36.5 26.0823 36.5Z" stroke="#2B4159" stroke-width="2.3" stroke-miterlimit="10"/>
<path d="M1.57347 34.2924L2.70304 33.8085C2.70304 33.8085 -1.0085 26.3853 8.02833 2.825C8.02833 2.825 8.02833 1.8567 13.8377 2.01816C19.8085 2.34085 88.8756 1.21132 94.3623 5.89113C94.3623 5.89113 111.629 23.6421 112.759 25.5784C113.888 27.5148 113.727 32.0334 113.727 32.0334C113.727 32.0334 116.632 32.6788 116.309 37.52C115.825 42.3611 107.918 43.8135 107.918 43.8135L98.8806 44.2977C98.8806 44.2977 98.7194 34.9381 88.0688 34.7766C78.548 34.4539 77.0955 45.2658 77.0955 45.2658H36.7526C36.7526 45.2658 36.7526 34.4539 25.9405 34.2924C15.1287 34.1312 14.9673 43.6521 14.9673 43.6521L3.18717 42.3611C2.86444 42.5225 0.605226 42.3611 1.57347 34.2924ZM113.082 31.8719C113.566 29.9356 112.92 26.8694 112.92 26.8694C109.854 27.5148 110.015 28.9673 110.015 28.9673L109.854 32.0334H113.082V31.8719ZM2.38031 25.9011C2.38031 25.9011 2.05757 27.6763 2.21894 29.9356H4.47814V28.4831L2.38031 25.9011ZM36.4299 9.27995C36.4299 7.8275 35.3001 6.69797 33.8479 6.69797H14.1605C12.7081 6.69797 11.2558 7.8275 10.933 9.27995L9.15793 17.0257C8.83519 18.4781 9.80342 19.6076 11.2558 19.6076H33.8479C35.3001 19.6076 36.4299 18.4781 36.4299 17.0257V9.27995ZM105.336 20.5759C105.336 20.5759 94.5238 7.34335 91.1349 6.8592L77.5797 6.53651L77.9023 18.1554L93.0713 18.8008C93.0713 18.8008 96.2989 18.9623 97.267 21.2213C98.0738 23.4806 100.979 23.1579 101.14 23.3191H105.336C105.336 23.1579 107.111 23.3192 105.336 20.5759ZM78.7092 24.4489C78.7092 24.7716 79.0321 24.9331 79.1933 24.9331C79.516 24.9331 79.6775 24.6101 79.6775 24.4489C79.6775 24.126 79.3548 23.9648 79.1933 23.9648C79.0321 23.8033 78.7092 24.126 78.7092 24.4489ZM77.5797 32.5175H105.981C106.465 32.5175 106.788 32.1946 106.788 31.7105C106.788 31.2266 106.465 30.9036 105.981 30.9036H77.5797V32.5175ZM76.9343 39.6179H77.257V38.0042H76.9343V39.6179ZM77.5797 26.8694V23.9648C77.5797 23.4806 77.257 23.1579 76.7728 23.1579H76.1272V27.5148H76.7728C77.257 27.5148 77.5797 27.1921 77.5797 26.8694ZM76.1272 39.6179H76.4501V38.0042H76.1272V39.6179ZM75.4818 39.6179H75.8045V38.0042H75.4818V39.6179ZM74.675 39.6179H74.9977V38.0042H74.675V39.6179ZM73.8681 39.6179H74.1908V38.0042H73.8681V39.6179ZM73.0613 39.6179H73.384V38.0042H73.0613V39.6179ZM72.4157 39.6179H72.7384V38.0042H72.4157V39.6179ZM71.9315 32.8402C71.9315 33.4856 72.4157 33.9698 73.0613 33.9698H75.1591C75.8045 33.9698 76.2887 33.4856 76.2887 32.8402V31.0651C76.2887 30.4197 75.8045 29.9356 75.1591 29.9356H73.0613C72.4157 29.9356 71.9315 30.4197 71.9315 31.0651V32.8402ZM70.6406 9.27995C70.6406 7.8275 69.511 6.69797 68.0588 6.69797H42.2392C40.7868 6.69797 39.6573 7.8275 39.6573 9.27995V16.8644C39.6573 18.3166 40.7868 19.4464 42.2392 19.4464H68.0588C69.511 19.4464 70.6406 18.3166 70.6406 16.8644V9.27995ZM6.73736 32.5175H70.6406V30.7424H6.73736C6.25323 30.7424 5.9305 31.0651 5.9305 31.5492C5.76913 32.0334 6.25323 32.5175 6.73736 32.5175ZM3.34854 33.9698H4.63953V30.2583H2.38031C2.54168 31.5492 2.70307 32.8402 3.34854 33.9698Z" fill="#DBE0EB"/>
<path d="M101.181 44.2977L107.918 43.8135C107.918 43.8135 115.825 42.3611 116.309 37.52C116.632 32.6788 113.727 32.0334 113.727 32.0334C113.727 32.0334 113.888 27.5148 112.759 25.5784C111.629 23.6421 94.3623 5.89113 94.3623 5.89113C88.8756 1.21132 19.8085 2.34085 13.8377 2.01816C8.02832 1.8567 8.02833 2.825 8.02833 2.825C-1.00849 26.3853 2.70304 33.8085 2.70304 33.8085L1.57347 34.2925C0.605227 42.3611 2.86443 42.5225 3.18717 42.3611L12.6673 43.6521M74.7955 45.2658H39.0526M2.38031 25.9011C2.38031 25.9011 2.05757 27.6763 2.21894 29.9356M3.34854 33.9698C2.70307 32.8402 2.54168 31.5492 2.38031 30.2583" stroke="#2B4159" stroke-width="2.3"/>
</svg>
